<mxfile host="app.diagrams.net" modified="2024-05-17T02:49:40.647Z" agent="Mozilla/5.0 (Macintosh; Intel Mac OS X 10_15_7) AppleWebKit/537.36 (KHTML, like Gecko) Chrome/122.0.0.0 Safari/537.36" version="24.4.3" etag="rfTbHT9_MK38bD_09xWh" type="github">
  <diagram name="第 1 页" id="zU1-eXUMzDJ34oJo1UzA">
    <mxGraphModel>
      <root>
        <mxCell id="0" />
        <mxCell id="1" parent="0" />
      </root>
    </mxGraphModel>
  </diagram>
</mxfile>
